# xmcd CD database file
# 
# Track frame offsets:
# 	150
# 	14382
# 	26931
# 	47814
# 	63849
# 	74050
# 	85080
# 	99020
# 	113229
# 	124575
# 	137487
# 	150240
# 
# Disc length: 2086 seconds
# 
# Submitted via: Nero 5.5.10.35
# 
# Revision: 0
# Processed by: cddbd v1.4PL0 Copyright (c) Steve Scherf et al.
#
DISCID=9408240c
DTITLE=Lazy Harry - The Australian Federation Album
DYEAR=1900
DGENRE=
TTITLE0=Song of Federation
TTITLE1=Grandma's Song
TTITLE2=I am Australian
TTITLE3=My Great Grandfather
TTITLE4=Dinki Di
TTITLE5=Song of Australia
TTITLE6=The Banks of the Condamine
TTITLE7=My Country
TTITLE8=Proud to be Australian
TTITLE9=Our Olympic Games
TTITLE10=Waltzing Matilda
TTITLE11=Advance Australia Fair
EXTD=
EXTT0=
EXTT1=
EXTT2=
EXTT3=
EXTT4=
EXTT5=
EXTT6=
EXTT7=
EXTT8=
EXTT9=
EXTT10=
EXTT11=
PLAYORDER=
